<svg xmlns="http://www.w3.org/2000/svg" viewBox="0 0 843.4 335.46" fill="currentColor"><g id="Capa_2" data-name="Capa 2"><g id="Capa_1-2" data-name="Capa 1"><path class="cls-1" d="M0,0H49.74V97.15a50.59,50.59,0,0,0,3.5,18.65A55.11,55.11,0,0,0,63.34,131a55.29,55.29,0,0,0,15.15,10.11,50.8,50.8,0,0,0,18.66,3.49,47.8,47.8,0,0,0,18.26-3.49A48.48,48.48,0,0,0,130.57,131a45.69,45.69,0,0,0,10.1-15.15,46.32,46.32,0,0,0,3.88-18.65V0h49.74V97.15a94.49,94.49,0,0,1-7.77,38.08,95.44,95.44,0,0,1-20.59,30.7,99.63,99.63,0,0,1-31.09,21,95.93,95.93,0,0,1-37.69,7.38,98.77,98.77,0,0,1-38.08-7.38A100.65,100.65,0,0,1,7.38,135.23,98.8,98.8,0,0,1,0,97.15Z"/><path class="cls-1" d="M310.79,0a91.78,91.78,0,0,1,37.7,7.77,93.81,93.81,0,0,1,51.68,51.68,91.81,91.81,0,0,1,7.77,37.7,94.49,94.49,0,0,1-7.77,38.08,95.46,95.46,0,0,1-20.6,30.7,99.58,99.58,0,0,1-31.08,21,96,96,0,0,1-37.7,7.38,98.8,98.8,0,0,1-38.08-7.38A100.58,100.58,0,0,1,221,135.23a98.8,98.8,0,0,1-7.38-38.08A96,96,0,0,1,221,59.45a99.75,99.75,0,0,1,21-31.08,95.46,95.46,0,0,1,30.7-20.6A94.49,94.49,0,0,1,310.79,0Zm0,144.55a47.81,47.81,0,0,0,18.27-3.49A48.31,48.31,0,0,0,344.21,131a45.71,45.71,0,0,0,10.11-15.15,46.32,46.32,0,0,0,3.88-18.65,43.64,43.64,0,0,0-3.88-18.27,41.06,41.06,0,0,0-10.11-15.15,40.83,40.83,0,0,0-15.15-10.1,43.49,43.49,0,0,0-18.27-3.89,46.16,46.16,0,0,0-18.65,3.89A45.53,45.53,0,0,0,277,63.73a48.6,48.6,0,0,0-10.11,15.15,47.81,47.81,0,0,0-3.49,18.27,50.78,50.78,0,0,0,3.49,18.65A55.36,55.36,0,0,0,277,131a55.14,55.14,0,0,0,15.15,10.11A50.78,50.78,0,0,0,310.79,144.55Z"/><path class="cls-1" d="M427.3,0H477V97.15a50.79,50.79,0,0,0,3.5,18.65A55.14,55.14,0,0,0,490.64,131a55.14,55.14,0,0,0,15.15,10.11,50.78,50.78,0,0,0,18.65,3.49,47.81,47.81,0,0,0,18.27-3.49A48.43,48.43,0,0,0,557.86,131,45.69,45.69,0,0,0,568,115.8a46.33,46.33,0,0,0,3.89-18.65V0h49.74V97.15a94.49,94.49,0,0,1-7.77,38.08,95.46,95.46,0,0,1-20.6,30.7,99.7,99.7,0,0,1-31.08,21,96,96,0,0,1-37.7,7.38,98.8,98.8,0,0,1-38.08-7.38,100.58,100.58,0,0,1-51.68-51.68,98.8,98.8,0,0,1-7.38-38.08Z"/><path class="cls-1" d="M637.06,0H843.4L732.26,144.55H837.57v49.74H637.06L755.92,49.74H637.06Z"/><path class="cls-1" d="M186.7,239.83c0,25.36-9.35,49.69-26,67.62s-39.24,28-62.79,28-46.14-10.07-62.79-28-26-42.26-26-67.62H53.6a49.63,49.63,0,0,0,13,33.74,42.11,42.11,0,0,0,62.65,0,49.63,49.63,0,0,0,13-33.74Z"/></g></g></svg>