<svg xmlns="http://www.w3.org/2000/svg" viewBox="0 0 1035.62 482.45"><defs><style>.cls-1{fill:#91ff22;}.cls-2{fill:#ff00fd;}</style></defs><g id="Capa_2" data-name="Capa 2"><g id="Capa_1-2" data-name="Capa 1"><path d="M131.83,325.49l-5.31,29.89H63.21l-5.76,33.43h47.38l-5.32,28.78H52.14L41.07,480.9H3.21L30.66,325.49Z"/><path d="M189.61,355.38l-5.53,32.32h50.7l-5.1,28.56H179L172.79,451h57.34l-5.32,29.89H129.62l27.45-155.41h95.2L247,355.38Z"/><path d="M275.4,471.49q-15.84-11-15.83-31.1a57.8,57.8,0,0,1,.44-6h39.41q-.68,8.41,4,13.28t14.17,4.87q8.64,0,13.61-3.76t5-10.63q0-7.08-6.31-11.51t-19.6-10a171.08,171.08,0,0,1-20.92-10.07,46.59,46.59,0,0,1-14-12.95q-6-8.19-6-20.59-.22-15.29,7.53-26.57a49.08,49.08,0,0,1,21.47-17.27q13.72-6,31.44-6,15.93,0,28.33,5t19.26,14.39a36.7,36.7,0,0,1,6.87,22.25,37.34,37.34,0,0,1-.23,4.87H343.69a11.71,11.71,0,0,0,.22-2.66A12.88,12.88,0,0,0,339.6,357q-4.32-3.87-11.85-3.88-8,0-12.95,3.88a12.61,12.61,0,0,0-5,10.51q0,6.65,6.2,11.18t19.26,10.52a201.75,201.75,0,0,1,21.36,11.07,48,48,0,0,1,14.28,13.61q6,8.54,6,20.92a42.9,42.9,0,0,1-7.31,24.58q-7.3,10.85-21,16.93t-32.1,6.09Q291.23,482.45,275.4,471.49Z"/><path d="M537,325.49l-5.09,29.89h-41.4L468.33,480.9H430.47l22.14-125.52H411.43l5.32-29.89Z"/><path d="M599.16,325.49,571.71,480.9H533.86l27.45-155.41Z"/><path d="M660.49,325.49l17.93,117.33,59.11-117.33h40.29L695.24,480.9H647.87L620.2,325.49Z"/><path d="M873,453.45H815L800.84,480.9H761.21L844.9,325.49h43.83L917.51,480.9H877.44Zm-4.43-28.78-9.07-57.56-29.67,57.56Z"/><path d="M982.82,452.12h49.59l-5.09,28.78H939.87l27.45-155.41h37.86Z"/><polygon class="cls-1" points="860.39 228.17 955.99 228.17 1023.46 161.88 1035.62 92.97 792.32 92.97 779.65 164.41 924.15 164.41 860.39 228.17"/><polyline class="cls-2" points="831.14 164.41 765.94 229.71 753.28 298.62 1000.63 298.62 1013.8 227.17 862.72 227.17 926.31 164.41"/><path d="M112.21,236.6,156.88,89.7h67.17L151,295.66H73.09L0,89.7H67.55Z"/><path d="M242.69,58.5a31.67,31.67,0,0,1-10.52-24.17A32.13,32.13,0,0,1,242.69,9.78Q253.22,0,269.82,0q16.24,0,26.76,9.78A32.1,32.1,0,0,1,307.1,34.33,31.64,31.64,0,0,1,296.58,58.5q-10.51,9.8-26.76,9.79Q253.22,68.29,242.69,58.5ZM301.2,89.7v206H238.08V89.7Z"/><path d="M403.06,95.6q16.62-8.85,38-8.86a85.31,85.31,0,0,1,46.14,12.92q20.67,12.93,32.67,36.91t12,55.74q0,31.75-12,55.92t-32.67,37.28a84.36,84.36,0,0,1-46.14,13.11q-21.78,0-38-8.68a67,67,0,0,1-25.47-23.07v28.79H314.48V22.52h63.11v96.34Q386.46,104.46,403.06,95.6Zm51.5,59.61q-13.11-13.47-32.3-13.47a42.59,42.59,0,0,0-31.93,13.66q-13.11,13.66-13.11,37.28T390.33,230a42.55,42.55,0,0,0,31.93,13.66q18.83,0,32.11-13.84t13.29-37.47Q467.66,168.7,454.56,155.21Z"/><path d="M745.6,207.81H602.75q1.47,19.2,12.37,29.35t26.76,10.15q23.61,0,32.85-19.93h67.18a92.31,92.31,0,0,1-18.64,36.54,93.4,93.4,0,0,1-33.78,25.47q-20.29,9.23-45.4,9.23-30.27,0-53.89-12.92a91.9,91.9,0,0,1-36.91-36.91Q540,224.79,540,192.68t13.1-56.11a90.8,90.8,0,0,1,36.73-36.91q23.63-12.91,54.26-12.92,29.89,0,53.16,12.55A90.07,90.07,0,0,1,733.6,135.1q13.11,23.25,13.11,54.26A160.62,160.62,0,0,1,745.6,207.81Zm-63.49-35.06q0-16.25-11.07-25.84t-27.69-9.6q-15.87,0-26.76,9.23t-13.47,26.21Z"/></g></g></svg>